<svg xmlns="http://www.w3.org/2000/svg" viewBox="0 0 512 512" fill="none">
  <defs>
    <linearGradient id="mop-gold" x1="256" y1="146" x2="256" y2="388" gradientUnits="userSpaceOnUse">
      <stop stop-color="#FFF1D6"/>
      <stop offset=".64" stop-color="#E5C48A"/>
      <stop offset="1" stop-color="#B68A49"/>
    </linearGradient>
    <linearGradient id="mop-jade" x1="194" y1="178" x2="292" y2="340" gradientUnits="userSpaceOnUse">
      <stop stop-color="#93F3C0"/>
      <stop offset=".56" stop-color="#56C48E"/>
      <stop offset="1" stop-color="#2B8665"/>
    </linearGradient>
    <linearGradient id="mop-cloud" x1="256" y1="184" x2="256" y2="328" gradientUnits="userSpaceOnUse">
      <stop stop-color="#FFF9EE"/>
      <stop offset=".62" stop-color="#F6F0E4"/>
      <stop offset="1" stop-color="#E7DDCB"/>
    </linearGradient>
  </defs>
  <rect x="84" y="84" width="344" height="344" rx="92" stroke="#E8D6B2" stroke-width="18"/>
  <path d="M210 176C181 190 160 215 150 246C140 277 146 311 168 340C182 359 200 375 224 386L240 354C223 346 210 334 201 318C189 297 188 272 194 248C200 224 213 204 234 192L210 176Z" fill="url(#mop-cloud)"/>
  <path d="M302 176C331 190 352 215 362 246C372 277 366 311 344 340C330 359 312 375 288 386L272 354C289 346 302 334 311 318C323 297 324 272 318 248C312 224 299 204 278 192L302 176Z" fill="url(#mop-cloud)"/>
  <path d="M202 172L228 144H284L310 172L288 190H224L202 172Z" fill="url(#mop-gold)"/>
  <path d="M220 202C231 188 243 181 256 181C269 181 281 188 292 202C301 214 306 228 306 244C306 260 298 274 286 286C278 294 268 304 256 318C244 304 234 294 226 286C214 274 206 260 206 244C206 228 211 214 220 202Z" fill="url(#mop-cloud)"/>
  <path d="M210 224C193 224 180 236 180 252C180 264 186 274 198 280C193 296 199 309 213 314C225 318 239 311 246 299C237 279 225 254 210 224Z" fill="url(#mop-cloud)"/>
  <path d="M302 224C319 224 332 236 332 252C332 264 326 274 314 280C319 296 313 309 299 314C287 318 273 311 266 299C275 279 287 254 302 224Z" fill="url(#mop-cloud)"/>
  <path d="M220 212C202 225 192 242 192 262C192 282 203 299 222 312" stroke="#2B8665" stroke-width="10" stroke-linecap="round"/>
  <path d="M292 212C310 225 320 242 320 262C320 282 309 299 290 312" stroke="#2B8665" stroke-width="10" stroke-linecap="round"/>
  <path d="M256 206C272 219 282 236 282 256C282 276 272 293 256 308C240 293 230 276 230 256C230 236 240 219 256 206Z" fill="url(#mop-jade)"/>
  <circle cx="256" cy="256" r="13" fill="#E9FFF5"/>
  <path d="M226 320C236 334 246 346 256 356C266 346 276 334 286 320L274 296C267 304 261 308 256 310C251 308 245 304 238 296L226 320Z" fill="#2B8665"/>
  <path d="M220 196C231 187 243 183 256 183C269 183 281 187 292 196" stroke="#D3AA67" stroke-width="7" stroke-linecap="round"/>
  <path d="M176 250C176 275 186 296 204 314" stroke="#E8D6B2" stroke-width="8" stroke-linecap="round" opacity=".72"/>
  <path d="M336 250C336 275 326 296 308 314" stroke="#E8D6B2" stroke-width="8" stroke-linecap="round" opacity=".72"/>
</svg>
