<svg xmlns="http://www.w3.org/2000/svg" viewBox="0 0 512 512" fill="none">
  <defs>
    <linearGradient id="wod-gold" x1="256" y1="142" x2="256" y2="394" gradientUnits="userSpaceOnUse">
      <stop stop-color="#FFE8C1"/>
      <stop offset=".62" stop-color="#D0A166"/>
      <stop offset="1" stop-color="#8E5F32"/>
    </linearGradient>
    <linearGradient id="wod-rust" x1="206" y1="180" x2="286" y2="352" gradientUnits="userSpaceOnUse">
      <stop stop-color="#D77251"/>
      <stop offset=".58" stop-color="#B54F3F"/>
      <stop offset="1" stop-color="#7F2D22"/>
    </linearGradient>
    <linearGradient id="wod-iron" x1="256" y1="168" x2="256" y2="360" gradientUnits="userSpaceOnUse">
      <stop stop-color="#343235"/>
      <stop offset=".56" stop-color="#19171B"/>
      <stop offset="1" stop-color="#080809"/>
    </linearGradient>
    <linearGradient id="wod-steel" x1="186" y1="190" x2="232" y2="332" gradientUnits="userSpaceOnUse">
      <stop stop-color="#F6F0E4"/>
      <stop offset=".64" stop-color="#D6C8B6"/>
      <stop offset="1" stop-color="#AC9884"/>
    </linearGradient>
  </defs>
  <rect x="84" y="84" width="344" height="344" rx="92" stroke="#E8D6B2" stroke-width="18"/>
  <path d="M214 160C183 173 160 199 149 236C139 273 143 310 162 342C175 364 193 380 218 392L234 360C217 351 205 339 197 323C187 304 186 281 192 256C197 230 211 208 232 192L214 160Z" fill="url(#wod-iron)"/>
  <path d="M224 184C205 195 192 213 186 237C180 261 183 284 194 304C201 318 210 330 223 340L236 320C226 313 218 304 214 291C207 274 208 257 213 240C218 223 228 209 242 198L224 184Z" fill="url(#wod-steel)"/>
  <path d="M298 160C329 173 352 199 363 236C373 273 369 310 350 342C337 364 319 380 294 392L278 360C295 351 307 339 315 323C325 304 326 281 320 256C315 230 301 208 280 192L298 160Z" fill="url(#wod-iron)"/>
  <path d="M288 184C307 195 320 213 326 237C332 261 329 284 318 304C311 318 302 330 289 340L276 320C286 313 294 304 298 291C305 274 304 257 299 240C294 223 284 209 270 198L288 184Z" fill="url(#wod-steel)"/>
  <path d="M206 176L224 150L244 168L256 144L268 168L288 150L306 176L288 198C278 190 267 186 256 186C245 186 234 190 224 198L206 176Z" fill="url(#wod-gold)"/>
  <path d="M232 194C239 184 247 178 256 178C265 178 273 184 280 194C287 204 290 219 289 236C286 272 275 308 256 342C237 308 226 272 223 236C222 219 225 204 232 194Z" fill="url(#wod-iron)"/>
  <path d="M244 182L256 170L268 182L270 238L256 312L242 238L244 182Z" fill="url(#wod-rust)"/>
  <path d="M206 242C223 230 240 224 256 224C272 224 289 230 306 242L290 264C279 256 268 252 256 252C244 252 233 256 222 264L206 242Z" fill="#E8D6B2"/>
  <path d="M224 320C236 334 246 348 256 370C266 348 276 334 288 320L300 348C288 368 274 383 256 394C238 383 224 368 212 348L224 320Z" fill="url(#wod-gold)"/>
  <path d="M236 328C244 339 251 351 256 364C261 351 268 339 276 328L282 346C274 360 265 372 256 382C247 372 238 360 230 346L236 328Z" fill="url(#wod-rust)"/>
  <path d="M218 208C229 198 242 193 256 193C270 193 283 198 294 208" stroke="#C78E53" stroke-width="8" stroke-linecap="round"/>
  <path d="M190 204C176 226 170 249 170 274C170 296 179 317 196 334" stroke="#524B47" stroke-width="8" stroke-linecap="round" opacity=".7"/>
  <path d="M322 204C336 226 342 249 342 274C342 296 333 317 316 334" stroke="#524B47" stroke-width="8" stroke-linecap="round" opacity=".7"/>
</svg>
